<?xml version="1.0" encoding="UTF-8" standalone="no"?>
<svg
   xmlns:osb="http://www.openswatchbook.org/uri/2009/osb"
   xmlns:dc="http://purl.org/dc/elements/1.1/"
   xmlns:cc="http://creativecommons.org/ns#"
   xmlns:rdf="http://www.w3.org/1999/02/22-rdf-syntax-ns#"
   xmlns:svg="http://www.w3.org/2000/svg"
   xmlns="http://www.w3.org/2000/svg"
   xmlns:sodipodi="http://sodipodi.sourceforge.net/DTD/sodipodi-0.dtd"
   xmlns:inkscape="http://www.inkscape.org/namespaces/inkscape"
   width="210mm"
   height="297mm"
   viewBox="0 0 210 297"
   version="1.1"
   id="svg8"
   sodipodi:docname="LogoLiandra.svg"
   inkscape:version="1.0.1 (0767f8302a, 2020-10-17)"
   inkscape:export-filename="/home/fernanda/Imagens/logoLiandra.png"
   inkscape:export-xdpi="96"
   inkscape:export-ydpi="96">
  <defs
     id="defs2">
    <linearGradient
       id="linearGradient3301"
       osb:paint="solid">
      <stop
         style="stop-color:#800000;stop-opacity:1;"
         offset="0"
         id="stop3299" />
    </linearGradient>
    <linearGradient
       id="linearGradient3121"
       osb:paint="solid">
      <stop
         style="stop-color:#ff93ff;stop-opacity:1;"
         offset="0"
         id="stop3119" />
    </linearGradient>
    <linearGradient
       id="linearGradient3045"
       osb:paint="solid">
      <stop
         style="stop-color:#ff2ae6;stop-opacity:1;"
         offset="0"
         id="stop3043" />
    </linearGradient>
    <linearGradient
       id="linearGradient2928"
       osb:paint="solid">
      <stop
         style="stop-color:#000000;stop-opacity:1;"
         offset="0"
         id="stop2926" />
    </linearGradient>
  </defs>
  <sodipodi:namedview
     id="base"
     pagecolor="#ffffff"
     bordercolor="#666666"
     borderopacity="1.0"
     inkscape:pageopacity="0.0"
     inkscape:pageshadow="2"
     inkscape:zoom="0.35"
     inkscape:cx="-184.1217"
     inkscape:cy="436.20258"
     inkscape:document-units="mm"
     inkscape:current-layer="layer1"
     inkscape:document-rotation="0"
     showgrid="false"
     inkscape:window-width="1316"
     inkscape:window-height="704"
     inkscape:window-x="307"
     inkscape:window-y="1107"
     inkscape:window-maximized="1" />
  <metadata
     id="metadata5">
    <rdf:RDF>
      <cc:Work
         rdf:about="">
        <dc:format>image/svg+xml</dc:format>
        <dc:type
           rdf:resource="http://purl.org/dc/dcmitype/StillImage" />
        <dc:title />
      </cc:Work>
    </rdf:RDF>
  </metadata>
  <g
     inkscape:label="Layer 1"
     inkscape:groupmode="layer"
     id="layer1"
     style="display:inline">
    <ellipse
       style="opacity:1;fill:#ff2ae6;fill-opacity:1;stroke:#c60037;stroke-width:2.13494;stroke-miterlimit:4;stroke-dasharray:none;stroke-opacity:1"
       id="path982"
       cx="105.21696"
       cy="125.77108"
       rx="27.2446"
       ry="18.153818"
       inkscape:transform-center-x="-501.18998"
       inkscape:transform-center-y="168.85586" />
    <path
       style="fill:#ff2ae6;fill-opacity:1;stroke:#c60037;stroke-width:1.34427px;stroke-linecap:butt;stroke-linejoin:miter;stroke-opacity:1"
       d="m 122.43651,112.09941 c 6.6013,-8.56066 49.3619,-33.476176 70.62941,-23.680878 4.41884,2.035211 2.28388,9.07449 3.55034,13.073708 1.1993,3.78725 3.48811,7.2813 3.89806,11.29728 1.69976,16.65027 -2.03583,44.73202 -13.5926,57.56008 -7.76706,8.62138 -32.88097,-0.54897 -41.0677,-5.58476 -3.08572,-1.8981 -5.47029,-4.57811 -8.2599,-6.81165 -4.24513,-3.39894 -9.13109,-6.00752 -13.05643,-9.80204 -3.77502,-3.64922 -7.54104,-6.37861 -1.7969,-7.57842 2.66473,-0.5566 3.93795,-3.33152 5.1878,-5.44417 0.61649,-1.04201 1.78729,-1.46213 2.46348,-2.46648 3.36693,-5.00099 1.10292,-9.25744 -1.20275,-13.87885 -1.11811,-2.24114 -7.33608,-9.29524 -6.75281,-6.68382"
       id="path2985"
       sodipodi:nodetypes="csssssssssssc" />
    <path
       style="display:inline;fill:#ff2ae6;fill-opacity:1;stroke:#c60037;stroke-width:1.34788px;stroke-linecap:butt;stroke-linejoin:miter;stroke-opacity:1"
       d="m 89.533066,141.49046 c -9.262647,11.81623 -51.920658,42.56606 -66.717262,31.89825 -3.92377,-2.82882 -3.04839,-9.28797 -4.639717,-13.35853 -1.50694,-3.85488 -4.024656,-7.30777 -4.800866,-11.47085 -3.218186,-17.25995 -2.350174,-46.9477 7.439188,-61.371274 6.579248,-9.693652 31.406596,-2.302966 39.696241,2.245879 3.124515,1.714587 5.655455,4.308016 8.529786,6.399219 4.37407,3.182346 9.283367,5.482226 13.390456,9.106136 3.94979,3.48515 7.802763,6.00935 2.440497,7.76646 -2.487576,0.81509 -3.435454,3.82774 -4.424583,6.14602 -0.487891,1.1434 -1.25593,1.90125 -2.112431,2.79438 -3.667362,3.82414 0.952263,8.81716 3.594205,13.4473 1.281187,2.24541 8.411201,9.07636 7.604486,6.39701"
       id="path2985-5"
       sodipodi:nodetypes="csssssssssssc" />
    <path
       style="fill:#ff93e6;fill-opacity:1;stroke:#c60037;stroke-width:1.34427px;stroke-linecap:butt;stroke-linejoin:miter;stroke-opacity:1"
       d="m 132.36775,123.05763 c 8.77869,0.77282 17.57847,1.09716 26.28679,-0.70288 4.85893,-1.00435 9.11417,-2.96534 13.79547,-4.37066 4.64874,-1.39557 20.03585,-8.96404 22.47565,-13.76383 2.62027,-5.154767 1.89642,-17.047058 -6.11523,-18.492296 -20.71727,-3.737217 -38.83033,8.513555 -58.0367,18.428446 -1.68948,0.87214 -8.12657,5.90122 -8.33722,7.943 -0.0813,0.78503 0.24185,-0.46488 0.68595,0.0204 3.04201,3.31389 5.59822,8.50759 9.24529,10.93947 z"
       id="path3002"
       sodipodi:nodetypes="cssssscsc" />
    <path
       style="display:inline;fill:#ff93ff;fill-opacity:1;stroke:#c60037;stroke-width:1.34427px;stroke-linecap:butt;stroke-linejoin:miter;stroke-opacity:1"
       d="M 86.262428,110.45886 C 80.312717,103.9578 74.044457,97.773122 66.408273,93.216392 62.147563,90.673899 57.685549,89.244552 53.284874,87.117672 48.914802,85.005609 32.457425,80.189009 27.415779,82.079078 22.00123,84.108941 14.499865,93.365298 19.429786,99.843814 32.178024,116.5966 54.503552,123.69891 74.667013,125.47029 c 1.894039,0.16615 0,0 0,0 v 0 c 0,0 12.641063,-10.75446 11.595434,-15.01143 z"
       id="path3002-3"
       sodipodi:nodetypes="ssssscccss" />
    <path
       style="fill:#ff00ff;stroke:#c60037;stroke-width:1.34427px;stroke-linecap:butt;stroke-linejoin:miter;stroke-opacity:1"
       d="m 89.533057,141.49046 c -3.708886,19.62694 -21.918715,33.17702 -32.904106,48.82705 -5.023005,7.15592 -9.206495,16.37967 -15.708304,22.27516 -6.444298,5.84337 15.715415,-5.37466 18.664467,-6.15984 0.44965,-0.1199 5.66682,-2.1441 5.752962,-1.84033 1.221555,4.30818 4.17471,8.60213 5.144335,12.92037 0.26003,1.1581 1.745313,4.45502 1.7679,4.93301 0.01217,0.24235 0.177264,2.5559 0.188393,2.5559 0.221976,0 7.926261,-12.4716 10.998717,-16.29416 4.074458,-5.06917 8.995326,-9.6414 12.520263,-15.13124 2.80237,-4.36453 5.921896,-9.16422 8.578716,-13.53382 1.35946,-2.23582 5.41964,-6.953 5.41964,-9.68702 0,-0.70769 -1.33509,-0.66887 -1.69544,-1.27794 -1.84355,-3.1162 -4.73856,-10.13438 -4.73856,-10.13438 -0.94517,-2.46724 -2.48026,-5.27854 -2.04326,-7.87234 1.36203,-8.08436 -4.756916,-6.99257 -11.945714,-9.58042 z"
       id="path3083"
       sodipodi:nodetypes="ssscsscssssssssss" />
    <path
       style="fill:#ff00ff;stroke:#c60037;stroke-width:1.34427px;stroke-linecap:butt;stroke-linejoin:miter;stroke-opacity:1"
       d="m 109.3764,170.49612 c 2.15117,6.1035 4.30908,12.20898 6.01379,18.45397 1.82198,6.67472 3.6202,13.35422 4.44876,20.24314 0.39832,3.31175 2.10255,6.41951 2.70984,9.69987 0.064,0.34702 0.49435,4.42006 0.6956,4.24284 4.81046,-4.23923 6.26451,-11.39947 11.21606,-15.77019 0.46539,-0.41103 0.85279,0.97143 1.43463,1.18848 4.00781,1.49545 8.35019,2.42283 11.54935,5.58481 1.07385,1.0613 2.24938,1.69416 3.41987,2.63262 0.16207,0.13006 0.63885,0.50044 0.53622,0.31956 -1.46695,-2.58592 -2.75125,-12.86616 -3.7242,-16.58808 l -4.33288,-16.57537 c -2.11113,-8.07613 -10.11842,-30.81339 -9.50609,-26.54357 0.25759,1.7974 -1.54713,-1.42685 -2.65187,-2.88827 0,0 -8.22769,-8.74322 -11.01319,-10.63278 -2.42654,-1.64595 -6.55428,-0.70369 -9.02798,-0.0768 7.60168,-1.07066 -13.122586,1.9079 -11.303006,1.6463 -0.18011,0.0254 0,0 0,0 -0.17341,0.91808 1.744786,4.59082 1.695426,5.67423 -0.3213,7.05393 7.83967,19.38927 7.83967,19.38927 z"
       id="path3085"
       sodipodi:nodetypes="cssccccsscsssssccsscc" />
    <path
       style="opacity:0.51;fill:none;stroke:#c60037;stroke-width:0.838315;stroke-linecap:butt;stroke-linejoin:miter;stroke-miterlimit:4;stroke-dasharray:none;stroke-opacity:1"
       d="m 111.14431,143.78643 c 1.75767,2.77517 2.19223,6.05969 3.15906,9.13753 2.60268,8.28555 5.51338,16.21516 7.62227,24.67772 0.15395,0.61848 3.24744,13.53032 1.98529,8.24294"
       id="path3087" />
    <path
       style="opacity:0.51;fill:none;stroke:#c60037;stroke-width:0.838315;stroke-linecap:butt;stroke-linejoin:miter;stroke-miterlimit:4;stroke-dasharray:none;stroke-opacity:1"
       d="m 111.14431,143.78643 c 2.84316,11.12825 11.06433,20.01338 15.14317,30.50528 2.18973,5.63257 3.87184,12.48907 5.66599,17.64888"
       id="path3089" />
    <path
       style="opacity:0.52;fill:none;stroke:#c60037;stroke-width:0.838315;stroke-linecap:butt;stroke-linejoin:miter;stroke-miterlimit:4;stroke-dasharray:none;stroke-opacity:1"
       d="m 99.841304,145.43272 c -0.7505,9.23748 -28.701574,33.9185 -27.025843,38.96781"
       id="path3091" />
    <path
       style="opacity:0.51;fill:none;stroke:#c60037;stroke-width:0.838315;stroke-linecap:butt;stroke-linejoin:miter;stroke-miterlimit:4;stroke-dasharray:none;stroke-opacity:1"
       d="m 99.841304,145.43272 c -0.17026,18.72071 -21.425898,32.35716 -20.37444,50.9041"
       id="path3093" />
    <path
       style="opacity:0.51;fill:none;stroke:#c60037;stroke-width:0.838315;stroke-linecap:butt;stroke-linejoin:miter;stroke-miterlimit:4;stroke-dasharray:none;stroke-opacity:1"
       d="m 130.66379,132.80861 c 8.47985,7.31819 25.66709,6.69442 36.34357,5.73809 3.03008,-0.27131 6.46672,-0.23118 9.40468,-1.0735 1.95744,-0.56101 5.0139,-2.10987 5.0139,-2.09584 0,0.18646 -1.10938,0.86051 -1.28969,0.99678"
       id="path3103" />
    <path
       style="opacity:0.51;fill:none;stroke:#c60037;stroke-width:0.838315;stroke-linecap:butt;stroke-linejoin:miter;stroke-miterlimit:4;stroke-dasharray:none;stroke-opacity:1"
       d="m 145.44467,139.10903 c 8.54553,1.49799 15.93724,6.55375 24.30149,8.42187 3.07403,0.6865 8.61215,0.67188 10.67989,1.6997"
       id="path3105" />
    <path
       style="opacity:0.51;fill:none;stroke:#c60037;stroke-width:0.838315;stroke-linecap:butt;stroke-linejoin:miter;stroke-miterlimit:4;stroke-dasharray:none;stroke-opacity:1"
       d="m 79.104583,132.42521 c -2.821291,1.48027 -5.583592,3.09121 -8.578705,4.19173 -10.067938,3.69957 -23.105506,1.81036 -32.865721,-1.87859 -2.362522,-0.89293 -4.275546,-2.67122 -6.622421,-3.59114 -0.495676,-0.19408 -1.840055,0.0635 -1.550535,-0.38358 0.134791,-0.20781 1.801709,-0.7579 2.057722,-0.86901"
       id="path3113" />
    <path
       style="opacity:0.51;fill:none;stroke:#c60037;stroke-width:0.838315;stroke-linecap:butt;stroke-linejoin:miter;stroke-miterlimit:4;stroke-dasharray:none;stroke-opacity:1"
       d="m 61.831249,138.20166 c -6.930767,1.80813 -12.680352,8.20061 -20.055628,9.18866 -1.622588,0.21745 -8.963101,0.77526 -7.651283,1.17572"
       id="path3115" />
    <path
       style="opacity:1;fill:#800000;fill-opacity:1;stroke:#c70012;stroke-width:5.3516;stroke-miterlimit:4;stroke-dasharray:none;stroke-dashoffset:0;stroke-opacity:1;paint-order:stroke fill markers"
       id="path3335"
       d="m 76.681523,115.64386 c -2.08461,-1.26118 -3.639804,-3.32217 -4.253854,-5.69465 -0.164419,-0.63554 -0.193778,-1.29868 -0.290822,-1.94794 0.07054,-0.6576 0.04621,-1.3323 0.212725,-1.97222 1.196204,-4.5987 6.797591,-7.472847 10.550114,-9.597898 6.97563,-3.437962 14.435148,-5.917343 20.888844,-10.357364 1.24922,-0.859397 2.39994,-1.853995 3.59992,-2.780974 3.61698,-3.506696 8.2928,-8.607921 8.92799,-13.890939 0.0691,-0.573966 -0.0406,-1.154893 -0.063,-1.732264 -0.25607,-0.398835 -0.38003,-0.924434 -0.76759,-1.19681 -0.46743,-0.328721 -1.06959,-0.508426 -1.64067,-0.494861 -3.48703,0.08434 -7.04266,-0.02541 -10.43471,0.785528 -0.90524,0.216946 -1.23615,1.395414 -1.78947,2.143953 -1.875146,2.536644 -3.310806,5.062463 -4.957866,7.771394 -7.267449,12.717547 -14.241626,25.596915 -21.350053,38.402925 -6.330117,11.75608 -13.874396,22.76027 -21.982363,33.34499 -4.566774,5.49737 -9.45734,11.30817 -15.999674,14.54351 -0.878843,0.43491 -1.819336,0.73176 -2.729009,1.09718 2.027723,0.53783 -6.766433,0.65352 -5.078106,0.45877 2.196985,-0.25403 4.473827,0.10315 6.621087,-0.42727 0.503595,-0.12448 -0.929421,-0.50503 -1.275122,-0.89178 -0.903458,-1.01059 -0.695638,-1.66173 -0.745669,-2.9247 0.21298,-0.62147 0.324708,-1.28719 0.63858,-1.86431 1.71238,-3.14897 5.438883,-5.01536 8.876091,-5.48208 0.916708,-0.12448 1.84977,-0.0406 2.774645,-0.06 -1.779641,0.13159 -3.709838,-0.33177 -5.338943,0.39681 -0.806064,0.36123 1.690746,0.52179 2.501176,0.87255 3.509638,1.51827 6.651507,3.96737 9.805295,6.08907 4.855267,3.22919 10.316718,5.50575 16.118079,6.29144 1.199072,0.16258 2.412129,0.19611 3.618198,0.29315 6.080113,0.20069 11.570781,0.35311 17.027158,-2.29159 3.713818,-1.80031 6.60982,-4.49323 9.60376,-7.26383 4.302726,-4.28019 7.739816,-9.30022 9.849356,-15.01134 0.89507,-2.42314 2.01221,-6.82907 2.67865,-9.32029 0.92107,-4.97833 3.37221,-13.07264 1.02331,-17.95378 -0.34499,-0.71734 -0.94761,-1.27952 -1.42138,-1.91923 -0.74758,-0.41255 -1.43108,-0.9728 -2.24278,-1.23791 -0.96508,-0.31501 -1.99287,-0.47301 -3.00812,-0.47708 -6.61854,-0.0254 -8.937976,-0.74372 -13.721826,1.68791 -3.171283,1.61205 -3.87754,2.47795 -6.660645,4.79277 -1.041329,1.15216 -2.180089,2.22316 -3.123968,3.45631 -3.249239,4.24522 -6.277512,10.56917 -6.963209,15.92317 -0.123611,0.96447 -0.03452,1.94443 -0.05215,2.91657 0.229597,0.70271 0.299914,1.48006 0.688677,2.1093 2.078405,3.36435 11.749762,1.70082 14.635532,1.43419 0.461532,-0.0406 1.290693,-0.3902 1.121653,-0.82217 -0.27827,-0.71012 -1.284677,-0.82297 -1.927019,-1.23424 0.358291,-0.27893 0.71664,-0.5566 1.074875,-0.83568 0,0 -1.092936,-0.1006 -1.092936,-0.1006 v 0 c -0.357735,0.27284 -0.71548,0.54587 -1.073186,0.81886 -1.627615,0.12803 -3.261444,0.19255 -4.882843,0.38359 -0.817268,0.0965 -3.236517,0.35717 -2.422286,0.47759 2.469507,0.36276 4.988639,0.18391 7.48327,0.26623 0.603195,0.0153 -1.22246,0.067 -1.808877,-0.0828 -1.976796,-0.48115 -2.136924,-1.10246 -3.527199,-2.56429 -0.354123,-0.90741 -0.852615,-1.77112 -1.062643,-2.72228 -1.240115,-5.61637 1.264079,-11.32707 4.782328,-15.59323 1.001539,-1.21449 2.214352,-2.23805 3.321518,-3.35702 3.304081,-2.31583 3.953958,-3.10192 7.735658,-4.48144 1.260926,-0.4603 4.192456,0.27944 3.893086,-1.02848 -0.31338,-1.36976 -2.79809,-0.29316 -4.202846,-0.32517 -1.56984,-0.0356 6.185316,0.34194 4.550436,1.21861 0.59556,0.53982 1.28789,0.98952 1.78688,1.61983 3.61908,4.57177 2.70669,12.1949 2.02093,17.50078 -0.37202,1.5457 -0.63739,3.12096 -1.11613,4.63694 -2.33688,7.40081 -6.784276,13.9601 -12.337765,19.30916 -4.322398,3.59622 -8.232314,6.62503 -13.758113,8.16946 -1.110618,0.31043 -2.973638,-0.39122 -3.391449,0.68361 -0.367788,0.94628 2.024639,0.15242 3.036949,0.22863 -1.219678,-0.0671 -2.445929,-0.0671 -3.659062,-0.21136 -5.546207,-0.66023 -10.663154,-2.9623 -15.233304,-6.09943 -2.310001,-1.6531 -4.566679,-3.41855 -6.966208,-4.94215 -0.759362,-0.48216 -3.774063,-2.31451 -4.754157,-2.4299 -3.435256,-0.40391 -6.911329,-0.30332 -10.366994,-0.4537 -0.844703,0.0884 -1.703571,0.0858 -2.534118,0.26267 -3.664607,0.78156 -7.597635,3.0907 -9.874221,6.10259 -0.498925,0.66029 -0.78416,1.45734 -1.176304,2.18597 -0.07296,0.69849 -0.328112,1.40202 -0.218217,2.09573 0.164565,1.03895 1.310725,2.76695 2.485692,2.93452 3.502747,0.49942 7.063192,0.4537 10.599783,0.55989 0.715546,0.0254 1.438741,-0.0356 2.140366,-0.17884 0.776782,-0.15801 1.511576,-0.47759 2.267392,-0.71678 0.732135,-0.42374 1.504399,-0.78401 2.196377,-1.27003 5.320712,-3.73864 8.301754,-9.8965 11.974963,-15.05046 6.842719,-11.0329 13.379818,-22.25362 19.89318,-33.48263 3.795471,-6.83842 7.493455,-13.73074 11.297999,-20.563816 2.43581,-4.374741 4.612561,-8.382758 7.549825,-12.446804 1.31836,-1.82408 2.82421,-3.505026 4.23631,-5.257563 3.225096,-3.26465 4.509996,-4.97487 8.317616,-7.375757 1.11297,-0.701794 4.58254,-0.90807 3.55065,-1.724386 -1.67628,-1.326165 -4.26671,-0.285536 -6.39094,-0.522449 -0.85936,-0.09552 3.64781,-0.228124 2.5101,0.654902 0.26465,0.480126 0.64219,0.913764 0.79406,1.440736 1.02645,3.564007 -1.2061,7.804205 -3.2389,10.547021 -0.77951,1.051864 -1.71771,1.976296 -2.57657,2.964387 -1.0761,0.919962 -2.09301,1.914004 -3.228266,2.759839 -6.376042,4.750356 -14.151172,7.026406 -21.309781,10.264894 -4.739105,2.12323 -11.344003,4.307016 -12.686369,10.080966 -0.161769,0.69611 -0.128591,1.42351 -0.193014,2.13532 0.348182,3.00828 1.096227,6.00899 3.145669,8.34448 0,0 8.494128,-0.79497 8.494128,-0.79497 z" />
    <circle
       id="path3337"
       style="fill:#000000;stroke:#c700a7;stroke-width:0.264583"
       cx="65.950668"
       cy="96.515038"
       r="0.014097" />
    <circle
       id="path3339"
       style="fill:#000000;stroke:#c700a7;stroke-width:0.264583"
       cx="66.418365"
       cy="99.005608"
       r="0.014097" />
    <path
       style="fill:none;stroke:#800000;stroke-width:1.85446;stroke-linecap:butt;stroke-linejoin:miter;stroke-miterlimit:4;stroke-dasharray:none;stroke-opacity:1"
       d="m 116.71617,164.20672 c 4.40358,6.81358 6.23258,-3.01539 6.23258,-6.82683 0,-0.73041 -0.99897,7.9767 1.81279,8.82563 6.82933,2.06206 1.50119,-7.98874 4.39948,-9.65587 3.54368,-2.03833 9.13221,3.02719 6.98627,6.76526 -2.16321,3.76825 -5.82752,-0.46133 -7.96395,-0.46133 -0.061,0 2.05621,2.41506 5.43834,1.81437 1.34389,-0.23879 1.02731,-1.30086 1.75162,-2.02959 0.0666,-0.067 0.70875,2.16484 1.14066,2.49087 0.95268,0.71907 2.60239,0.005 3.31998,-0.76881 1.25327,-1.35168 -1.56084,-6.18347 -0.48876,-8.08762 1.34212,-2.38386 4.53397,2.02832 4.90867,3.10589 0.68915,1.98182 0.23981,4.67424 0.50919,4.67424 0.15801,0 -2.08309,-7.99366 1.46649,-7.53412 4.39867,0.56945 0.86484,9.64831 5.35683,9.16391 5.10367,-0.55034 -3.4949,-9.4438 3.17747,-9.04086 3.69322,0.22305 7.08368,5.23222 3.91068,8.42584 -2.41969,2.43539 -5.54173,-0.70728 -5.21428,-0.70728 0.70053,0 0.31755,2.51545 2.19979,2.24485 5.83275,-0.83856 3.89969,-9.84746 3.97174,-14.63765 0.0305,-2.18444 0.18341,-4.36773 0.18341,-6.54999 0,-1.09682 0.0204,-4.38723 0.0204,-3.29041 0,1.87117 -1.88595,22.78186 0.14277,23.86304 3.65068,1.9457 3.63001,-3.15634 3.56442,-5.10474 -0.0356,-1.06334 -0.92485,-4.14666 -0.59063,-3.13662 0.71816,2.17048 4.41401,1.39135 5.8456,1.04556 0.70073,-0.16919 0.49791,-2.56891 0.89623,-1.96812 1.57766,2.3793 -2.19044,8.76264 1.0795,11.10123 4.07487,2.91429 3.18519,-9.97834 4.88834,-10.70148 3.81459,-1.61952 6.59998,4.3658 4.74578,7.16506 -1.93036,2.91424 -5.47903,-0.99347 -5.47903,-0.7995 0,1.00852 3.12962,2.69364 4.1551,2.30633 0.89085,-0.33633 1.07818,-3.4823 1.28319,-2.55238 0.27994,1.26885 0.29315,3.40117 2.01643,3.69021 0.53342,0.0894 5.2386,-1.12406 3.11634,-1.38383"
       id="path1007" />
    <path
       style="fill:none;stroke:#800000;stroke-width:1.85446;stroke-linecap:butt;stroke-linejoin:miter;stroke-miterlimit:4;stroke-dasharray:none;stroke-opacity:1"
       d="m 127.65606,220.24894 c 7.92396,7.77732 4.7092,-10.80279 11.08025,-8.11831 2.48187,1.04576 3.29559,8.18496 0.89619,9.77888 -2.86532,1.90343 -6.48338,-3.67873 -6.37522,-3.35184 0.53277,1.61018 1.6933,2.48807 3.05524,3.41337 1.6184,1.09967 2.45682,0.71841 3.72735,-0.67655 0.4344,-0.47657 -0.0305,-2.44392 0.32567,-1.90658 0.72116,1.08758 0.50604,4.03382 2.99411,3.22893 3.19078,-1.03224 0.89735,-5.13968 2.09797,-7.65712 0.77532,-1.62577 3.80575,0 3.56436,0 -0.65215,0 -1.10967,-0.77907 -1.81273,-0.7995 -4.20261,-0.12193 -2.31731,8.85637 2.97373,8.85637 4.63959,0 0.96177,-13.94052 8.24903,-8.27208 3.4822,2.70862 -0.65806,12.0661 -4.74574,7.31879 -1.01014,-1.17313 -2.73565,-4.2026 -0.20374,-4.7972 2.67159,-0.62741 3.97266,3.65034 6.63998,3.0751 2.31984,-0.50045 5.90453,-7.98173 3.89029,-9.50213 -1.03972,-0.78482 -0.28046,2.83869 0.50923,3.87469 1.99473,2.61667 8.08004,1.72023 8.14727,5.78123 0.1199,7.23791 -6.04375,1.38379 -7.90288,1.38379"
       id="path1019" />
    <path
       style="fill:none;stroke:#800000;stroke-width:1.85446;stroke-linecap:butt;stroke-linejoin:miter;stroke-miterlimit:4;stroke-dasharray:none;stroke-opacity:1"
       d="m 148.84116,222.84045 c -0.061,0.59454 -0.061,1.19853 -0.18341,1.78363 -0.12804,0.61435 -1.87,1.41457 -1.24244,1.41457 2.46496,0 5.90739,-0.45727 2.56637,3.59789 -1.04642,1.27013 -3.85707,2.56855 -4.19579,0.52276"
       id="path1021" />
    <path
       style="display:inline;opacity:1;fill:#800000;fill-opacity:1;stroke:#c70012;stroke-width:5.3516;stroke-miterlimit:4;stroke-dasharray:none;stroke-dashoffset:0;stroke-opacity:1;paint-order:stroke fill markers"
       id="path3335-3"
       d="m 99.864634,180.5521 c -2.08461,-1.26118 -3.63981,-3.32216 -4.25386,-5.69466 -0.16462,-0.63554 -0.19358,-1.29867 -0.29062,-1.94793 0.0706,-0.65759 0.0457,-1.33231 0.21288,-1.97223 1.1962,-4.59869 6.797616,-7.47284 10.550116,-9.5979 6.97567,-3.43796 14.43514,-5.91734 20.88885,-10.35737 1.24924,-0.85939 2.39992,-1.85399 3.59993,-2.78097 3.61695,-3.5067 8.29277,-8.60792 8.92796,-13.89094 0.0691,-0.57397 -0.0406,-1.15489 -0.063,-1.73226 -0.25607,-0.39883 -0.38004,-0.92443 -0.76754,-1.19681 -0.46742,-0.32872 -1.06959,-0.50843 -1.64066,-0.49486 -3.48704,0.0843 -7.04272,-0.0254 -10.43474,0.78553 -0.90523,0.21695 -1.23614,1.39541 -1.78948,2.14395 -1.87513,2.53664 -3.31078,5.06246 -4.95785,7.77139 -7.26747,12.71755 -14.24166,25.59692 -21.350066,38.40293 -6.33009,11.75608 -13.874378,22.76027 -21.982355,33.345 -4.566792,5.49736 -9.457321,11.30816 -15.999692,14.5435 -0.878805,0.43491 -1.819298,0.73178 -2.72899,1.09718 2.027704,0.53784 -6.766432,0.65353 -5.078111,0.45879 2.19699,-0.25404 4.473813,0.10313 6.621063,-0.42729 0.503501,-0.12448 -0.929411,-0.50502 -1.275103,-0.89176 -0.903449,-1.01061 -0.695647,-1.66175 -0.74564,-2.92472 0.212875,-0.62147 0.324651,-1.28719 0.638542,-1.86431 1.712398,-3.14896 5.438892,-5.01536 8.876081,-5.48207 0.916718,-0.12447 1.849789,-0.0406 2.774674,-0.06 -1.77967,0.13159 -3.70982,-0.33176 -5.338952,0.39681 -0.806055,0.36124 1.690754,0.52179 2.501176,0.87256 3.509647,1.51827 6.651506,3.96736 9.805295,6.08907 4.855276,3.22919 10.316717,5.50575 16.118069,6.29143 1.1991,0.16258 2.412167,0.19612 3.618213,0.29316 6.080136,0.20068 11.570786,0.3531 17.027176,-2.2916 3.71382,-1.8003 6.60982,-4.49322 9.60373,-7.26383 4.30274,-4.28019 7.73984,-9.30022 9.84939,-15.01134 0.89507,-2.42313 2.01221,-6.82907 2.67865,-9.32029 0.92107,-4.97832 3.37221,-13.07264 1.02331,-17.95377 -0.34499,-0.71734 -0.94761,-1.27952 -1.42138,-1.91923 -0.74758,-0.41256 -1.43108,-0.97281 -2.24278,-1.23792 -0.96508,-0.315 -1.9929,-0.47301 -3.00813,-0.47708 -6.61858,-0.0254 -8.93802,-0.74371 -13.72186,1.68791 -3.17125,1.61206 -3.87752,2.47797 -6.66062,4.79278 -1.04136,1.15215 -2.1801,2.22317 -3.12399,3.4563 -3.24921,4.24523 -6.27751,10.56918 -6.963196,15.92317 -0.12346,0.96447 -0.0356,1.94443 -0.0523,2.91657 0.22964,0.70272 0.29976,1.48006 0.68869,2.10931 2.078406,3.36434 11.749736,1.70081 14.635526,1.43418 0.46132,-0.0406 1.29068,-0.3902 1.12165,-0.82216 -0.27842,-0.71013 -1.2847,-0.82297 -1.92699,-1.23425 0.35819,-0.27893 0.71663,-0.5566 1.07487,-0.83568 0,0 -1.09296,-0.1006 -1.09296,-0.1006 v 0 c -0.35768,0.27284 -0.71546,0.54587 -1.0732,0.81886 -1.6276,0.12804 -3.2614,0.19256 -4.88282,0.3836 -0.81728,0.0965 -3.23655,0.35717 -2.42232,0.47758 2.46952,0.36276 4.98865,0.18392 7.48332,0.26623 0.60319,0.0153 -1.22247,0.0671 -1.80887,-0.0828 -1.97682,-0.48113 -2.13697,-1.10246 -3.52725,-2.56427 -0.35412,-0.90742 -0.8526,-1.77114 -1.06262,-2.7223 -1.24011,-5.61635 1.26407,-11.32706 4.78231,-15.59322 1.00156,-1.2145 2.21438,-2.23806 3.32151,-3.35703 3.30407,-2.31583 3.95394,-3.10192 7.73566,-4.48143 1.26093,-0.46031 4.19244,0.27944 3.89309,-1.02849 -0.31348,-1.36975 -2.79809,-0.29315 -4.20285,-0.32516 -1.56984,-0.0356 6.18534,0.34193 4.55047,1.2186 0.59556,0.53983 1.28786,0.98952 1.78689,1.61984 3.61902,4.57176 2.70663,12.19489 2.02089,17.50077 -0.37191,1.54571 -0.63737,3.12098 -1.11613,4.63696 -2.33686,7.40079 -6.78425,13.96008 -12.33777,19.30915 -4.32239,3.59622 -8.2323,6.62503 -13.75807,8.16945 -1.11065,0.31044 -2.97369,-0.3912 -3.391466,0.68362 -0.36785,0.94628 2.024596,0.15242 3.036926,0.22863 -1.21967,-0.067 -2.44589,-0.067 -3.659056,-0.21136 -5.5462,-0.66024 -10.663129,-2.9623 -15.233316,-6.09943 -2.309992,-1.65311 -4.566641,-3.41855 -6.966199,-4.94215 -0.759362,-0.48216 -3.774044,-2.31452 -4.754166,-2.42989 -3.435266,-0.40392 -6.911329,-0.30332 -10.366966,-0.45372 -0.844721,0.0884 -1.703561,0.0858 -2.534156,0.26268 -3.664607,0.78157 -7.597629,3.09069 -9.874188,6.10258 -0.498926,0.66029 -0.784156,1.45735 -1.176333,2.18597 -0.07318,0.6985 -0.328216,1.40202 -0.218468,2.09574 0.164617,1.03896 1.310771,2.76695 2.485728,2.93451 3.502744,0.49944 7.063196,0.45371 10.599768,0.55989 0.715565,0.0254 1.43875,-0.0356 2.140348,-0.17884 0.77679,-0.15801 1.511604,-0.47758 2.26741,-0.71678 0.732135,-0.42373 1.504399,-0.78401 2.196386,-1.27002 5.320713,-3.73864 8.301764,-9.89649 11.974964,-15.05047 6.842681,-11.03288 13.379818,-22.25361 19.893178,-33.48263 3.795476,-6.83841 7.493476,-13.73074 11.298016,-20.56382 2.43579,-4.37474 4.61255,-8.38275 7.5498,-12.4468 1.31834,-1.82407 2.82421,-3.50503 4.23629,-5.25757 3.22512,-3.26465 4.51004,-4.97487 8.31762,-7.37574 1.11297,-0.70181 4.58253,-0.90808 3.55064,-1.7244 -1.67628,-1.32616 -4.26667,-0.28553 -6.39091,-0.52245 -0.85935,-0.0955 3.64779,-0.22812 2.51012,0.65491 0.2647,0.48012 0.64215,0.91375 0.79401,1.44073 1.02645,3.56401 -1.20605,7.80421 -3.23884,10.54703 -0.77953,1.05185 -1.71774,1.97629 -2.57663,2.96438 -1.07609,0.91997 -2.093,1.914 -3.22823,2.75984 -6.37607,4.75035 -14.15117,7.0264 -21.30978,10.26489 -4.739116,2.12323 -11.344024,4.30702 -12.686398,10.08098 -0.161562,0.6961 -0.128544,1.42351 -0.193071,2.13531 0.348031,3.00829 1.096264,6.009 3.145669,8.3445 0,0 8.494164,-0.79498 8.494164,-0.79498 z" />
  </g>
</svg>
